<?xml version="1.0" encoding="utf-8"?>
<!-- Generator: Adobe Illustrator 22.1.0, SVG Export Plug-In . SVG Version: 6.00 Build 0)  -->
<svg version="1.1" id="Layer_1" xmlns="http://www.w3.org/2000/svg" xmlns:xlink="http://www.w3.org/1999/xlink" x="0px" y="0px"
	 width="512px" height="512px" viewBox="0 0 512 512" style="enable-background:new 0 0 512 512;" xml:space="preserve">
<style type="text/css">
	.st0{fill:#83D3C9;}
</style>
<g>
	<path class="st0" d="M184.889,161.295v34.84h-53.3v154.57H87.65v-154.57h-53.3v-34.84H184.889z"/>
	<path class="st0" d="M201.79,161.295h36.92c3.813,0,6.998,0.868,9.556,2.6c2.555,1.735,4.225,4.03,5.005,6.89l26,98.8
		c0.865,3.208,1.732,6.63,2.6,10.271c0.865,3.64,1.516,7.454,1.95,11.439c0.865-4.072,1.82-7.908,2.86-11.505
		c1.04-3.595,2.035-6.997,2.989-10.205l30.681-98.8c0.779-2.425,2.447-4.615,5.005-6.565c2.555-1.95,5.654-2.925,9.295-2.925h13
		c3.813,0,6.955,0.845,9.425,2.535s4.181,4.01,5.135,6.955l30.42,98.8c0.953,3.034,1.95,6.263,2.99,9.685
		c1.04,3.426,1.95,7.086,2.73,10.985c0.692-3.813,1.407-7.452,2.145-10.92c0.735-3.466,1.495-6.716,2.275-9.75l26-98.8
		c0.692-2.513,2.34-4.723,4.939-6.63c2.601-1.905,5.721-2.86,9.36-2.86h34.58l-58.5,189.41h-39.78l-35.62-117.39
		c-0.607-1.82-1.234-3.813-1.885-5.98c-0.65-2.165-1.279-4.462-1.885-6.89c-0.607,2.427-1.235,4.725-1.885,6.89
		c-0.65,2.167-1.28,4.16-1.886,5.98l-36.14,117.39h-39.78L201.79,161.295z"/>
</g>
</svg>
